<svg width="250" height="250" viewBox="0 0 250 250" fill="none" xmlns="http://www.w3.org/2000/svg">
<path d="M0.78125 55.5469C2.35653 48.6444 6.22899 42.4815 11.7644 38.0673C17.2998 33.6532 24.1701 31.2495 31.25 31.25H218.75C225.83 31.2495 232.7 33.6532 238.236 38.0673C243.771 42.4815 247.643 48.6444 249.219 55.5469L125 131.469L0.78125 55.5469ZM0 73.3906V184.391L90.6719 128.797L0 73.3906ZM105.641 137.969L2.98437 200.891C5.52073 206.239 9.52385 210.757 14.5278 213.918C19.5318 217.08 25.3309 218.756 31.25 218.75H218.75C224.668 218.751 230.465 217.072 235.466 213.908C240.467 210.743 244.467 206.224 247 200.875L144.344 137.953L125 149.781L105.641 137.953V137.969ZM159.328 128.813L250 184.391V73.3906L159.328 128.797V128.813Z" fill="#E4FEF2"/>
</svg>
