<svg width="95" height="95" viewBox="0 0 95 95" fill="none" xmlns="http://www.w3.org/2000/svg">
<circle cx="47.5" cy="47.5" r="47.5" fill="#E4FEF2"/>
<path d="M55.4102 28.4414C54.9284 28.4414 54.5117 28.3242 54.1602 28.0898C53.8086 27.8424 53.6328 27.4648 53.6328 26.957V25.6094C51.5625 25.7917 50.1562 26.3646 49.4141 27.3281C48.6719 28.2917 48.3008 29.8346 48.3008 31.957C48.3008 32.0872 48.3008 32.2174 48.3008 32.3477C48.3138 32.4779 48.3203 32.6081 48.3203 32.7383L48.3594 34.0859H52.6367C53.1315 34.0859 53.4896 34.2682 53.7109 34.6328C53.9323 34.9844 54.043 35.401 54.043 35.8828C54.043 36.3125 53.9128 36.6966 53.6523 37.0352C53.4049 37.3607 53.0534 37.5234 52.5977 37.5234H48.3203L48.3594 52.5625H53.2812C53.776 52.5625 54.1341 52.7448 54.3555 53.1094C54.5768 53.4609 54.6875 53.8776 54.6875 54.3594C54.6875 54.7891 54.5573 55.1732 54.2969 55.5117C54.0495 55.8372 53.6979 56 53.2422 56H40.1562C39.6094 56 39.2057 55.8438 38.9453 55.5312C38.6849 55.2188 38.5547 54.8151 38.5547 54.3203C38.5547 53.8385 38.6719 53.4284 38.9062 53.0898C39.1536 52.7383 39.5312 52.5625 40.0391 52.5625H44.3555V37.5234H40.8789C40.332 37.5234 39.9284 37.3672 39.668 37.0547C39.4076 36.7422 39.2773 36.3385 39.2773 35.8438C39.2773 35.362 39.3945 34.9518 39.6289 34.6133C39.8763 34.2617 40.2539 34.0859 40.7617 34.0859H44.3555V32.0352C44.3555 28.6107 45.332 26.0911 47.2852 24.4766C49.2383 22.849 51.9596 22.0352 55.4492 22.0352C55.8789 22.0352 56.2565 22.1654 56.582 22.4258C56.9206 22.6732 57.0898 23.0247 57.0898 23.4805V26.8398C57.0898 27.3867 56.9336 27.7904 56.6211 28.0508C56.3086 28.3112 55.9049 28.4414 55.4102 28.4414Z" fill="#245E41"/>
</svg>
