<svg xmlns="http://www.w3.org/2000/svg" width="95" height="95" fill="none" viewBox="0 0 95 95"><path fill="#E4FEF2" d="M31.7752 76.4939C31.7752 76.8867 31.3347 77.201 30.7792 77.201C30.1472 77.26 29.7067 76.9457 29.7067 76.4939C29.7067 76.101 30.1472 75.7867 30.7026 75.7867C31.2772 75.7277 31.7752 76.042 31.7752 76.4939ZM25.8185 75.6099C25.6845 76.0028 26.0675 76.4546 26.6421 76.5724C27.1401 76.7689 27.7147 76.5724 27.8296 76.1796C27.9446 75.7867 27.5806 75.3349 27.006 75.1581C26.5081 75.0206 25.9526 75.217 25.8185 75.6099ZM34.2843 75.2759C33.7288 75.4134 33.3458 75.7867 33.4032 76.2385C33.4607 76.6314 33.9587 76.8867 34.5333 76.7492C35.0887 76.6117 35.4718 76.2385 35.4143 75.8456C35.3569 75.4724 34.8397 75.217 34.2843 75.2759ZM46.8871 0C20.3216 0 0 20.6852 0 47.9314C0 69.7167 13.369 88.3589 32.4647 94.92C34.9163 95.3718 35.7782 93.8199 35.7782 92.543C35.7782 91.3251 35.7208 84.6068 35.7208 80.4816C35.7208 80.4816 22.3135 83.4282 19.498 74.6277C19.498 74.6277 17.3145 68.9113 14.1734 67.438C14.1734 67.438 9.7873 64.3538 14.4798 64.4128C14.4798 64.4128 19.249 64.8057 21.873 69.4809C26.0675 77.0635 33.0968 74.8831 35.8357 73.5865C36.2762 70.4435 37.5212 68.263 38.9002 66.9665C28.1935 65.7486 17.3911 64.1574 17.3911 45.2598C17.3911 39.8577 18.8468 37.1469 21.9113 33.6895C21.4133 32.4127 19.7853 27.1481 22.4093 20.3512C26.4123 19.0744 35.625 25.6551 35.625 25.6551C39.4556 24.555 43.5736 23.9854 47.6532 23.9854C51.7329 23.9854 55.8508 24.555 59.6815 25.6551C59.6815 25.6551 68.8942 19.0547 72.8972 20.3512C75.5212 27.1677 73.8931 32.4127 73.3952 33.6895C76.4597 37.1665 78.3367 39.8774 78.3367 45.2598C78.3367 64.2163 67.0555 65.7289 56.3488 66.9665C58.1109 68.5184 59.6048 71.465 59.6048 76.0813C59.6048 82.7014 59.5474 90.8929 59.5474 92.5037C59.5474 93.7806 60.4284 95.3325 62.8609 94.8807C82.0141 88.3589 95 69.7167 95 47.9314C95 20.6852 73.4526 0 46.8871 0ZM18.6169 67.7523C18.3679 67.9487 18.4254 68.4005 18.751 68.7738C19.0575 69.0881 19.498 69.2256 19.747 68.9702C19.996 68.7738 19.9385 68.3219 19.6129 67.9487C19.3065 67.6344 18.8659 67.4969 18.6169 67.7523ZM16.5484 66.1611C16.4143 66.4165 16.6058 66.7308 16.9889 66.9272C17.2954 67.1237 17.6784 67.0647 17.8125 66.7897C17.9466 66.5343 17.755 66.22 17.372 66.0236C16.9889 65.9057 16.6825 65.9647 16.5484 66.1611ZM22.754 73.1544C22.4476 73.4097 22.5625 73.9991 23.003 74.3723C23.4435 74.8241 23.999 74.8831 24.248 74.5687C24.497 74.3134 24.3821 73.724 23.999 73.3508C23.5776 72.899 23.003 72.8401 22.754 73.1544ZM20.5706 70.2667C20.2641 70.4631 20.2641 70.9739 20.5706 71.4257C20.877 71.8775 21.3942 72.074 21.6431 71.8775C21.9496 71.6221 21.9496 71.1114 21.6431 70.6596C21.375 70.2078 20.877 70.0113 20.5706 70.2667Z"/></svg>