<svg width="200" height="200" viewBox="0 0 200 200" fill="none" xmlns="http://www.w3.org/2000/svg">
<path d="M81.25 181.25V137.437C81.25 134.375 84.375 131.25 87.5 131.25H112.5C115.625 131.25 118.75 134.375 118.75 137.5V181.25C118.75 182.907 119.408 184.497 120.581 185.669C121.753 186.841 123.342 187.5 125 187.5H175C176.658 187.5 178.247 186.841 179.419 185.669C180.592 184.497 181.25 182.907 181.25 181.25V93.7498C181.251 92.9284 181.091 92.1149 180.778 91.3556C180.465 90.5964 180.005 89.9062 179.425 89.3248L162.5 72.4123V31.2498C162.5 29.5922 161.842 28.0024 160.669 26.8303C159.497 25.6582 157.908 24.9998 156.25 24.9998H143.75C142.092 24.9998 140.503 25.6582 139.331 26.8303C138.158 28.0024 137.5 29.5922 137.5 31.2498V47.4123L104.425 14.3248C103.844 13.7427 103.155 13.2809 102.395 12.9659C101.636 12.6508 100.822 12.4886 100 12.4886C99.1779 12.4886 98.3639 12.6508 97.6046 12.9659C96.8453 13.2809 96.1556 13.7427 95.575 14.3248L20.575 89.3248C19.995 89.9062 19.5353 90.5964 19.2221 91.3556C18.909 92.1149 18.7485 92.9284 18.75 93.7498V181.25C18.75 182.907 19.4085 184.497 20.5806 185.669C21.7527 186.841 23.3424 187.5 25 187.5H75C76.6576 187.5 78.2473 186.841 79.4194 185.669C80.5915 184.497 81.25 182.907 81.25 181.25Z" fill="#E4FEF2"/>
</svg>
