<svg xmlns="http://www.w3.org/2000/svg" width="95" height="95" fill="none" viewBox="0 0 95 95"><circle cx="47.5" cy="47.5" r="47.5" fill="#E4FEF2"/><path fill="#245E41" d="M37.4521 65H32.9355V38.584H37.4521V65ZM32.5693 31.5771C32.5693 30.8447 32.7891 30.2262 33.2285 29.7217C33.6842 29.2171 34.3516 28.9648 35.2305 28.9648C36.1094 28.9648 36.7767 29.2171 37.2324 29.7217C37.6882 30.2262 37.916 30.8447 37.916 31.5771C37.916 32.3096 37.6882 32.9199 37.2324 33.4082C36.7767 33.8965 36.1094 34.1406 35.2305 34.1406C34.3516 34.1406 33.6842 33.8965 33.2285 33.4082C32.7891 32.9199 32.5693 32.3096 32.5693 31.5771ZM48.9756 38.584L49.1221 41.9043C51.1403 39.3652 53.777 38.0957 57.0322 38.0957C62.6149 38.0957 65.4307 41.2451 65.4795 47.5439V65H60.9629V47.5195C60.9466 45.6152 60.5072 44.2074 59.6445 43.2959C58.7982 42.3844 57.4717 41.9287 55.665 41.9287C54.2002 41.9287 52.9144 42.3193 51.8076 43.1006C50.7008 43.8818 49.8382 44.9072 49.2197 46.1768V65H44.7031V38.584H48.9756Z"/></svg>