<svg width="248" height="247" viewBox="0 0 248 247" fill="none" xmlns="http://www.w3.org/2000/svg">
<g clip-path="url(#clip0)">
<path fill-rule="evenodd" clip-rule="evenodd" d="M229.212 133.707C229.269 136.4 228.754 139.061 227.699 141.516C226.645 143.971 225.076 146.162 223.096 147.945C221.116 149.728 218.77 151.062 216.215 151.859C213.659 152.655 210.952 152.896 208.272 152.566L176.602 148.657C170.795 147.939 165.584 144.594 162.47 139.591L149.352 118.529C148.672 117.438 147.726 116.536 146.604 115.909C145.482 115.283 144.224 114.954 142.95 114.954L105.106 114.985C103.831 114.987 102.585 115.319 101.49 115.948C100.394 116.578 99.4864 117.484 98.855 118.578L86.6742 139.654C85.2465 142.125 83.2685 144.228 80.8897 145.802C78.5108 147.377 75.7934 148.383 72.9428 148.744L41.4544 152.712C30.134 154.138 19.9195 145.3 19.6753 133.882L19.324 117.959C19.0727 106.564 24.8443 95.5411 35.4665 90.389C62.6487 77.1975 92.5842 70.3568 123.052 70.3743C153.515 70.3049 183.749 77.0929 211.51 90.2349C222.344 95.3692 228.609 106.39 228.861 117.785L229.212 133.707Z" fill="#E4FEF2"/>
</g>
<path fill-rule="evenodd" clip-rule="evenodd" d="M110.453 157C110.069 157 109.694 157.105 109.366 157.303V157.303C109.038 157.501 108.662 157.605 108.279 157.605H84.8558C82.0944 157.605 79.8558 159.844 79.8558 162.605V172.302C79.8558 174.053 78.9396 175.676 77.4405 176.582L27.8588 206.523C27.5893 206.686 27.7047 207.1 28.0196 207.1V207.1C28.3153 207.1 28.4614 207.496 28.2647 207.717C27.478 208.6 27 209.765 27 211.041V241C27 243.761 29.2386 246 32 246H215.808C218.569 246 220.808 243.761 220.808 241V211.041C220.808 209.764 220.33 208.6 219.543 207.716C219.346 207.496 219.492 207.1 219.788 207.1V207.1C220.102 207.1 220.218 206.686 219.948 206.524L169.527 176.075C168.028 175.17 167.111 173.546 167.111 171.795V162.605C167.111 159.844 164.873 157.605 162.111 157.605H139.527C139.144 157.605 138.769 157.501 138.441 157.303V157.303C138.113 157.105 137.737 157 137.354 157H110.453Z" fill="#E4FEF2"/>
<ellipse cx="124.5" cy="205.5" rx="31.5" ry="29.5" fill="#245E41"/>
<defs>
<clipPath id="clip0">
<rect width="172.401" height="176.1" fill="white" transform="translate(247.431 123.114) rotate(134.344)"/>
</clipPath>
</defs>
</svg>
